#!OML:ASF H:\Terrain\Patient Classification 1\Walking\liu\liu.ASF
:FULLY-SPECIFIED
:DEGREES
127
root 9.30145 16.3179 -6.5356 7.1912 5.24855 5.45056
lowerback -6.40975 -3.98425 -7.95245
upperback -1.18165 -4.79906 1.24081
thorax 3.12018 -2.4824 5.28945
lowerneck -23.6258 -2.43575 -11.6217
upperneck 26.6593 -2.62322 11.5102
head 13.2048 -0.774391 6.087
rclavicle -3.84151e-014 -2.54444e-014
rhumerus -48.9204 3.72767 -81.2466
rradius 22.6543
rwrist -7.98137
rhand -28.9102 -20.159
rfingers 7.12502
rthumb -2.26496 -50.1267
lclavicle -3.84151e-014 -2.54444e-014
lhumerus -4.83103 -18.9327 84.7341
lradius 44.6262
lwrist 14.8735
lhand -19.2313 -26.7887
lfingers 7.12502
lthumb 7.08185 3.0728
rfemur -41.0317 2.00619 14.4493
rtibia 27.7896
rfoot -12.176 -2.78747
rtoes -19.6757
lfemur 19.9391 6.30901 -25.4393
ltibia -3.49861e-014
lfoot -10.5277 -6.70634
ltoes -7.16873
128
root 9.28624 16.3012 -6.29763 6.93251 5.01818 5.32692
lowerback -6.31618 -3.95096 -7.78053
upperback -1.08814 -4.77031 1.19943
thorax 3.14394 -2.46972 5.15562
lowerneck -23.6651 -2.23921 -11.1669
upperneck 26.5573 -2.43954 11.2988
head 13.1328 -0.671134 5.94507
rclavicle -7.32025e-014 1.94809e-014
rhumerus -48.4503 1.72269 -79.7528
rradius 21.1683
rwrist -5.80735
rhand -29.646 -18.7068
rfingers 7.12502
rthumb -2.97557 -48.6658
lclavicle -7.32025e-014 1.94809e-014
lhumerus -5.21735 -18.6302 84.6613
lradius 45.436
lwrist 16.0053
lhand -18.7944 -26.8298
lfingers 7.12502
lthumb 7.5036 3.01709
rfemur -40.902 1.01277 15.4399
rtibia 28.8041
rfoot -8.94006 -2.07337
rtoes -19.7682
lfemur 21.0828 6.70368 -25.0073
ltibia -5.725e-014
lfoot -9.79204 -6.56962
ltoes -10.4982
129
root 9.26464 16.3064 -6.05553 6.6914 4.92679 5.0652
lowerback -6.29846 -3.86582 -7.4531
upperback -1.0076 -4.67963 1.23987
thorax 3.18216 -2.42499 5.02338
lowerneck -23.5452 -2.20261 -11.2255
upperneck 26.3991 -2.36389 11.2945
head 13.0328 -0.644276 5.95444
rclavicle 1.53561e-014 1.98785e-014
rhumerus -48.0647 -0.874704 -77.6444
rradius 19.8348
rwrist -2.44268
rhand -29.1689 -18.9176
rfingers 7.12502
rthumb -2.51484 -48.8825
lclavicle 1.53561e-014 1.98785e-014
lhumerus -5.46779 -18.7567 84.7468
lradius 45.8498
lwrist 16.6649
lhand -18.8463 -27.0017
lfingers 7.12502
lthumb 7.45349 2.84699
rfemur -40.8573 0.786111 16.0241
rtibia 29.9133
rfoot -6.8136 -1.62547
rtoes -22.6039
lfemur 22.1392 6.97299 -24.4411
ltibia 1.59028e-014
lfoot -8.88502 -6.11469
ltoes -15.9576
130
root 9.24525 16.3156 -5.80931 6.40596 4.97467 4.69086
lowerback -6.23578 -3.87913 -7.06723
upperback -0.968736 -4.73172 1.36902
thorax 3.17532 -2.44851 4.93923
lowerneck -23.6097 -2.17956 -11.3696
upperneck 26.5302 -2.3112 11.4089
head 13.0952 -0.621588 6.04568
rclavicle -2.48232e-014 -6.36111e-015
rhumerus -47.9937 -2.05969 -76.4975
rradius 18.9201
rwrist -1.14908
rhand -28.7547 -21.9007
rfingers 7.12502
rthumb -2.11477 -51.8699
lclavicle -2.48232e-014 -6.36111e-015
lhumerus -5.97146 -18.572 84.9382
lradius 46.1447
lwrist 16.6047
lhand -19.0791 -27.3694
lfingers 7.12502
lthumb 7.22883 2.48709
rfemur -40.4348 0.720695 16.4981
rtibia 30.8887
rfoot -5.60808 -1.02947
rtoes -23.5257
lfemur 23.2014 7.10049 -23.6822
ltibia 6.04305e-014
lfoot -7.1881 -6.00426
ltoes -17.7511
131
root 9.23062 16.3216 -5.57246 6.23093 4.80166 4.03195
lowerback -6.19219 -3.91944 -6.44698
upperback -0.998182 -4.83953 1.63094
thorax 3.10726 -2.49436 4.85778
lowerneck -23.8915 -2.05637 -11.2476
upperneck 26.8156 -2.14184 11.3253
head 13.2423 -0.544522 6.04277
rclavicle 2.08724e-015 -1.59028e-015
rhumerus -47.6801 -2.9687 -75.3313
rradius 17.8077
rwrist 0.155769
rhand -27.3727 -26.5286
rfingers 7.12502
rthumb -0.780086 -56.5069
lclavicle 2.08724e-015 -1.59028e-015
lhumerus -6.81964 -17.9644 85.1779
lradius 46.7184
lwrist 16.6112
lhand -19.3861 -27.4525
lfingers 7.12502
lthumb 6.93244 2.41401
rfemur -39.9421 0.648194 17.4467
rtibia 31.7924
rfoot -4.40272 -0.483208
rtoes -20.778
lfemur 24.0698 7.44981 -22.6277
ltibia -2.22639e-014
lfoot -5.04728 -5.80058
ltoes -17.7266
132
root 9.20857 16.326 -5.33802 6.09772 4.71898 3.35121
lowerback -6.17174 -4.01022 -5.88536
upperback -0.967861 -5.0082 1.9171
thorax 3.12833 -2.57587 4.82364
lowerneck -24.1365 -1.89331 -10.9582
upperneck 26.8875 -1.9072 11.0391
head 13.2809 -0.445813 5.92331
rclavicle -2.14687e-014 -1.03368e-014
rhumerus -47.1243 -4.6319 -73.6651
rradius 16.6013
rwrist 2.60902
rhand -26.5186 -25.1613
rfingers 7.12502
rthumb 0.0448227 -55.1411
lclavicle -2.14687e-014 -1.03368e-014
lhumerus -7.56317 -17.5182 85.3407
lradius 47.2391
lwrist 16.9404
lhand -19.6844 -27.2927
lfingers 7.12502
lthumb 6.64451 2.58301
rfemur -39.5252 0.0462781 18.7525
rtibia 32.7281
rfoot -3.36383 0.3981
rtoes -19.1733
lfemur 24.851 7.70573 -21.5558
ltibia -8.5875e-014
lfoot -2.52458 -5.16244
ltoes -18.6917
133
root 9.18781 16.3295 -5.09769 5.94654 4.58146 2.86561
lowerback -6.17775 -4.05982 -5.5097
upperback -0.945543 -5.10565 2.12522
thorax 3.15425 -2.62313 4.81847
lowerneck -24.0733 -1.72296 -10.6908
upperneck 26.7569 -1.69153 10.8045
head 13.1774 -0.353377 5.80677
rclavicle -2.56929e-014 4.77083e-015
rhumerus -46.9161 -6.88395 -71.4218
rradius 15.6161
rwrist 6.76644
rhand -26.3921 -20.6926
rfingers 7.12502
rthumb 0.167085 -50.6723
lclavicle -2.56929e-014 4.77083e-015
lhumerus -8.31009 -17.2929 85.5169
lradius 47.429
lwrist 16.8302
lhand -19.8817 -27.4481
lfingers 7.12502
lthumb 6.45407 2.43361
rfemur -39.1985 -0.66095 19.9084
rtibia 33.7315
rfoot -2.89234 1.51037
rtoes -18.9502
lfemur 25.6663 7.99635 -20.713
ltibia 5.40694e-014
lfoot 0.687434 -4.00928
ltoes -17.8009
134
root 9.17148 16.3355 -4.849 5.63796 4.30996 2.61398
lowerback -6.01725 -4.00173 -5.28241
upperback -1.0292 -5.0563 2.2572
thorax 2.96368 -2.59017 4.84854
lowerneck -23.5733 -1.67317 -10.923
upperneck 26.6117 -1.59043 10.8617
head 13.003 -0.332545 5.86812
rclavicle -6.16232e-015 1.19271e-014
rhumerus -47.3484 -9.95819 -67.9248
rradius 15.1025
rwrist 13.3254
rhand -23.4112 -20.4176
rfingers 7.12502
rthumb 3.04603 -50.3756
lclavicle -6.16232e-015 1.19271e-014
lhumerus -9.51076 -17.2039 85.9938
lradius 47.6255
lwrist 16.3501
lhand -20.3123 -27.748
lfingers 7.12502
lthumb 6.03829 2.14595
rfemur -38.7133 -0.995205 20.6119
rtibia 34.8221
rfoot -2.8512 2.41073
rtoes -17.4191
lfemur 26.7166 8.40715 -20.1783
ltibia 3.49861e-014
lfoot 4.266 -2.38093
ltoes -16.5989
135
root 9.15213 16.3446 -4.60284 5.36839 4.02131 2.44143
lowerback -5.78701 -3.95159 -5.17296
upperback -1.17441 -5.01212 2.37441
thorax 2.67984 -2.5573 4.93533
lowerneck -23.0755 -1.62238 -11.3666
upperneck 26.5073 -1.50146 11.207
head 12.8513 -0.300895 6.08468
rclavicle 4.93234e-015 5.56597e-015
rhumerus -47.6745 -10.7038 -67.0433
rradius 14.8699
rwrist 12.4477
rhand -25.3263 -20.4251
rfingers 7.12502
rthumb 1.1964 -50.4015
lclavicle 4.93234e-015 5.56597e-015
lhumerus -10.9024 -17.0723 86.5172
lradius 47.9508
lwrist 16.2801
lhand -20.7507 -27.643
lfingers 7.12502
lthumb 5.61503 2.26256
rfemur -38.2048 -1.1895 21.1589
rtibia 35.9272
rfoot -3.02043 3.29702
rtoes -15.4088
lfemur 27.6813 8.83535 -19.7748
ltibia 2.54444e-014
lfoot 7.84416 -0.411501
ltoes -17.8957
136
root 9.12414 16.3605 -4.37814 5.37555 3.99378 2.27115
lowerback -5.76563 -3.95374 -5.12481
upperback -1.20557 -5.02065 2.42637
thorax 2.63724 -2.5597 4.96434
lowerneck -23.2 -1.58548 -11.2996
upperneck 26.5389 -1.50036 11.329
head 12.8896 -0.275078 6.12814
rclavicle -4.4155e-014 3.97569e-015
rhumerus -47.5352 -12.3098 -65.775
rradius 14.4608
rwrist 13.7437
rhand -25.4198 -23.5261
rfingers 7.12502
rthumb 1.10614 -53.503
lclavicle -4.4155e-014 3.97569e-015
lhumerus -11.8421 -17.0844 86.7502
lradius 48.2095
lwrist 16.4053
lhand -20.5005 -27.1216
lfingers 7.12502
lthumb 5.85661 2.77745
rfemur -37.8353 -1.38827 21.6698
rtibia 36.8901
rfoot -3.48824 3.93236
rtoes -13.964
lfemur 23.1285 9.32942 -19.3008
ltibia 9.80488
lfoot 6.82409 0.0899936
ltoes -18.939
137
root 9.09395 16.3855 -4.16781 5.44852 4.43786 2.17953
lowerback -5.6764 -4.04357 -5.1553
upperback -1.2333 -5.14372 2.44889
thorax 2.57898 -2.61951 4.99958
lowerneck -23.6549 -1.65867 -10.8717
upperneck 26.8081 -1.63755 10.9997
head 13.1074 -0.331215 5.92205
rclavicle 9.19379e-015 -5.56597e-015
rhumerus -47.2422 -12.9872 -65.3324
rradius 13.8868
rwrist 14.6075
rhand -26.9575 -26.7059
rfingers 7.12502
rthumb -0.379042 -56.6853
lclavicle 9.19379e-015 -5.56597e-015
lhumerus -12.6611 -17.1237 87.0967
lradius 48.2235
lwrist 16.1286
lhand -19.9163 -26.8171
lfingers 7.12502
lthumb 6.42058 3.0656
rfemur -37.3189 -2.07479 22.1228
rtibia 37.5363
rfoot -4.3979 4.47554
rtoes -13.0954
lfemur 19.9556 9.25608 -18.8019
ltibia 16.6285
lfoot 6.84801 0.0312228
ltoes -18.1267
138
root 9.0902 16.4133 -3.9204 5.02124 4.41414 1.74354
lowerback -5.57869 -3.95122 -4.57165
upperback -1.09139 -5.05993 2.50604
thorax 2.61618 -2.57705 4.7414
lowerneck -23.5343 -1.76646 -11.0865
upperneck 26.7038 -1.82732 11.349
head 13.0731 -0.391103 6.06257
rclavicle -4.09248e-014 1.74931e-014
rhumerus -47.2691 -14.3455 -64.1563
rradius 13.3839
rwrist 16.5457
rhand -28.2206 -26.8014
rfingers 7.12502
rthumb -1.59902 -56.7752
lclavicle -4.09248e-014 1.74931e-014
lhumerus -13.4293 -16.9822 87.5989
lradius 47.7466
lwrist 15.6034
lhand -19.7721 -27.4786
lfingers 7.12502
lthumb 6.55984 2.39976
rfemur -35.9948 -2.77333 22.8811
rtibia 37.7827
rfoot -5.28834 5.4489
rtoes -11.9039
lfemur 17.9777 9.63817 -18.0896
ltibia 22.3359
lfoot 6.94033 -0.0945778
ltoes -17.5156
